<?xml version="1.0" standalone="no"?>
<!DOCTYPE svg PUBLIC "-//W3C//DTD SVG 20010904//EN"
 "http://www.w3.org/TR/2001/REC-SVG-20010904/DTD/svg10.dtd">
<svg version="1.0" xmlns="http://www.w3.org/2000/svg"
 width="225.000000pt" height="225.000000pt" viewBox="0 0 225.000000 225.000000"
 preserveAspectRatio="xMidYMid meet">

<g transform="translate(0.000000,225.000000) scale(0.100000,-0.100000)"
fill="#000000" stroke="none">
<path d="M1670 1909 c-132 -76 -110 -271 36 -319 113 -38 224 48 224 172 0 63
-25 108 -79 145 -45 30 -131 31 -181 2z"/>
<path d="M1052 1748 c-22 -13 -108 -88 -191 -168 -130 -124 -152 -150 -157
-182 -6 -32 -2 -41 24 -68 41 -40 80 -40 129 2 21 17 91 83 155 146 l117 115
71 -12 71 -13 -134 -137 c-153 -155 -174 -194 -164 -301 7 -81 31 -120 151
-246 l106 -112 -105 -113 c-91 -97 -105 -117 -105 -147 0 -46 46 -92 92 -92
35 0 57 20 249 232 108 120 108 129 -6 248 -66 69 -85 95 -85 117 0 23 28 56
155 183 l155 155 0 -133 c0 -226 10 -236 256 -240 l171 -4 30 26 c17 14 34 37
37 51 8 30 -15 80 -43 95 -11 5 -76 10 -144 10 l-125 0 -4 138 c-3 116 -7 143
-25 177 -34 64 -178 190 -252 221 -48 21 -301 74 -349 74 -22 0 -57 -10 -80
-22z"/>
<path d="M543 842 c-194 -192 -357 -360 -363 -376 -14 -37 14 -97 51 -110 56
-19 75 -3 398 318 l314 313 -18 45 c-9 25 -17 71 -18 102 -1 31 -4 56 -7 55
-3 0 -163 -156 -357 -347z"/>
</g>
</svg>
